<?xml version="1.0" encoding="UTF-8" standalone="no"?><!DOCTYPE svg PUBLIC "-//W3C//DTD SVG 1.1//EN" "http://www.w3.org/Graphics/SVG/1.1/DTD/svg11.dtd"><!-- Generated by graphviz version 2.40.1 (20161225.0304)
 --><!-- Title: Tree Pages: 1 --><svg xmlns="http://www.w3.org/2000/svg" xmlns:xlink="http://www.w3.org/1999/xlink" width="1610pt" height="417pt" viewBox="0.00 0.00 1610.04 416.80">
<g id="graph0" class="graph" transform="scale(1 1) rotate(0) translate(4 412.8)">
<title>Tree</title>
<polygon fill="#ffffff" stroke="transparent" points="-4,4 -4,-412.8 1606.0356,-412.8 1606.0356,4 -4,4"/>
<!-- 0 -->
<g id="node1" class="node">
<title>0</title>
<polygon fill="none" stroke="#000000" points="917.3039,-408.9003 686.2317,-408.9003 686.2317,-333.4997 917.3039,-333.4997 917.3039,-408.9003"/>
<text text-anchor="middle" x="801.7678" y="-392.2" font-family="Times,serif" font-size="14.00" fill="#000000">country_code_PH &lt;= 0.5</text>
<text text-anchor="middle" x="801.7678" y="-375.4" font-family="Times,serif" font-size="14.00" fill="#000000">gini = 0.581</text>
<text text-anchor="middle" x="801.7678" y="-358.6" font-family="Times,serif" font-size="14.00" fill="#000000">samples = 671205</text>
<text text-anchor="middle" x="801.7678" y="-341.8" font-family="Times,serif" font-size="14.00" fill="#000000">value = [70728, 257158, 342717, 602]</text>
</g>
<!-- 1 -->
<g id="node2" class="node">
<title>1</title>
<polygon fill="none" stroke="#000000" points="730.3039,-297.7003 499.2317,-297.7003 499.2317,-222.2997 730.3039,-222.2997 730.3039,-297.7003"/>
<text text-anchor="middle" x="614.7678" y="-281" font-family="Times,serif" font-size="14.00" fill="#000000">term_in_months &lt;= 7.5</text>
<text text-anchor="middle" x="614.7678" y="-264.2" font-family="Times,serif" font-size="14.00" fill="#000000">gini = 0.519</text>
<text text-anchor="middle" x="614.7678" y="-247.4" font-family="Times,serif" font-size="14.00" fill="#000000">samples = 510764</text>
<text text-anchor="middle" x="614.7678" y="-230.6" font-family="Times,serif" font-size="14.00" fill="#000000">value = [68980, 112204, 328978, 602]</text>
</g>
<!-- 0&#45;&gt;1 -->
<g id="edge1" class="edge">
<title>0-&gt;1</title>
<path fill="none" stroke="#000000" d="M738.4581,-333.5528C721.8559,-323.6802 703.8311,-312.9617 686.8093,-302.8397"/>
<polygon fill="#000000" stroke="#000000" points="688.3963,-299.7113 678.0123,-297.6085 684.8185,-305.728 688.3963,-299.7113"/>
<text text-anchor="middle" x="684.1712" y="-317.638" font-family="Times,serif" font-size="14.00" fill="#000000">True</text>
</g>
<!-- 2284 -->
<g id="node5" class="node">
<title>2284</title>
<polygon fill="none" stroke="#000000" points="1112.3039,-297.7003 909.2317,-297.7003 909.2317,-222.2997 1112.3039,-222.2997 1112.3039,-297.7003"/>
<text text-anchor="middle" x="1010.7678" y="-281" font-family="Times,serif" font-size="14.00" fill="#000000">count_female &lt;= 0.5</text>
<text text-anchor="middle" x="1010.7678" y="-264.2" font-family="Times,serif" font-size="14.00" fill="#000000">gini = 0.176</text>
<text text-anchor="middle" x="1010.7678" y="-247.4" font-family="Times,serif" font-size="14.00" fill="#000000">samples = 160441</text>
<text text-anchor="middle" x="1010.7678" y="-230.6" font-family="Times,serif" font-size="14.00" fill="#000000">value = [1748, 144954, 13739, 0]</text>
</g>
<!-- 0&#45;&gt;2284 -->
<g id="edge4" class="edge">
<title>0-&gt;2284</title>
<path fill="none" stroke="#000000" d="M872.5257,-333.5528C891.3364,-323.5444 911.7812,-312.6666 931.0356,-302.4221"/>
<polygon fill="#000000" stroke="#000000" points="932.8986,-305.3955 940.0828,-297.6085 929.6106,-299.2158 932.8986,-305.3955"/>
<text text-anchor="middle" x="932.78" y="-317.3181" font-family="Times,serif" font-size="14.00" fill="#000000">False</text>
</g>
<!-- 2 -->
<g id="node3" class="node">
<title>2</title>
<polygon fill="none" stroke="#000000" points="418.3039,-186.5003 215.2317,-186.5003 215.2317,-111.0997 418.3039,-111.0997 418.3039,-186.5003"/>
<text text-anchor="middle" x="316.7678" y="-169.8" font-family="Times,serif" font-size="14.00" fill="#000000">sector_Agriculture &lt;= 0.5</text>
<text text-anchor="middle" x="316.7678" y="-153" font-family="Times,serif" font-size="14.00" fill="#000000">gini = 0.421</text>
<text text-anchor="middle" x="316.7678" y="-136.2" font-family="Times,serif" font-size="14.00" fill="#000000">samples = 49402</text>
<text text-anchor="middle" x="316.7678" y="-119.4" font-family="Times,serif" font-size="14.00" fill="#000000">value = [3583, 36359, 8870, 590]</text>
</g>
<!-- 1&#45;&gt;2 -->
<g id="edge2" class="edge">
<title>1-&gt;2</title>
<path fill="none" stroke="#000000" d="M513.8786,-222.3528C485.9653,-211.9368 455.5285,-200.5791 427.1076,-189.9738"/>
<polygon fill="#000000" stroke="#000000" points="428.1457,-186.6255 417.5531,-186.4085 425.6984,-193.1838 428.1457,-186.6255"/>
</g>
<!-- 377 -->
<g id="node8" class="node">
<title>377</title>
<polygon fill="none" stroke="#000000" points="723.3039,-186.5003 506.2317,-186.5003 506.2317,-111.0997 723.3039,-111.0997 723.3039,-186.5003"/>
<text text-anchor="middle" x="614.7678" y="-169.8" font-family="Times,serif" font-size="14.00" fill="#000000">country_code_NG &lt;= 0.5</text>
<text text-anchor="middle" x="614.7678" y="-153" font-family="Times,serif" font-size="14.00" fill="#000000">gini = 0.471</text>
<text text-anchor="middle" x="614.7678" y="-136.2" font-family="Times,serif" font-size="14.00" fill="#000000">samples = 461362</text>
<text text-anchor="middle" x="614.7678" y="-119.4" font-family="Times,serif" font-size="14.00" fill="#000000">value = [65397, 75845, 320108, 12]</text>
</g>
<!-- 1&#45;&gt;377 -->
<g id="edge7" class="edge">
<title>1-&gt;377</title>
<path fill="none" stroke="#000000" d="M614.7678,-222.3528C614.7678,-214.02 614.7678,-205.0845 614.7678,-196.4137"/>
<polygon fill="#000000" stroke="#000000" points="618.2679,-196.4084 614.7678,-186.4085 611.2679,-196.4085 618.2679,-196.4084"/>
</g>
<!-- 3 -->
<g id="node4" class="node">
<title>3</title>
<polygon fill="none" stroke="#000000" points="203.3039,-75.3003 .2317,-75.3003 .2317,.1003 203.3039,.1003 203.3039,-75.3003"/>
<text text-anchor="middle" x="101.7678" y="-58.6" font-family="Times,serif" font-size="14.00" fill="#000000">country_code_HT &lt;= 0.5</text>
<text text-anchor="middle" x="101.7678" y="-41.8" font-family="Times,serif" font-size="14.00" fill="#000000">gini = 0.345</text>
<text text-anchor="middle" x="101.7678" y="-25" font-family="Times,serif" font-size="14.00" fill="#000000">samples = 43121</text>
<text text-anchor="middle" x="101.7678" y="-8.2" font-family="Times,serif" font-size="14.00" fill="#000000">value = [1138, 34106, 7326, 551]</text>
</g>
<!-- 2&#45;&gt;3 -->
<g id="edge3" class="edge">
<title>2-&gt;3</title>
<path fill="none" stroke="#000000" d="M243.9786,-111.1528C224.5403,-101.0991 203.4058,-90.1681 183.5202,-79.8831"/>
<polygon fill="#000000" stroke="#000000" points="184.9723,-76.6937 174.482,-75.2085 181.7564,-82.9113 184.9723,-76.6937"/>
</g>
<!-- 272 -->
<g id="node10" class="node">
<title>272</title>
<polygon fill="none" stroke="#000000" points="411.304,-75.3003 222.2316,-75.3003 222.2316,.1003 411.304,.1003 411.304,-75.3003"/>
<text text-anchor="middle" x="316.7678" y="-58.6" font-family="Times,serif" font-size="14.00" fill="#000000">country_code_ML &lt;= 0.5</text>
<text text-anchor="middle" x="316.7678" y="-41.8" font-family="Times,serif" font-size="14.00" fill="#000000">gini = 0.659</text>
<text text-anchor="middle" x="316.7678" y="-25" font-family="Times,serif" font-size="14.00" fill="#000000">samples = 6281</text>
<text text-anchor="middle" x="316.7678" y="-8.2" font-family="Times,serif" font-size="14.00" fill="#000000">value = [2445, 2253, 1544, 39]</text>
</g>
<!-- 2&#45;&gt;272 -->
<g id="edge9" class="edge">
<title>2-&gt;272</title>
<path fill="none" stroke="#000000" d="M316.7678,-111.1528C316.7678,-102.82 316.7678,-93.8845 316.7678,-85.2137"/>
<polygon fill="#000000" stroke="#000000" points="320.2679,-85.2084 316.7678,-75.2085 313.2679,-85.2085 320.2679,-85.2084"/>
</g>
<!-- 2285 -->
<g id="node6" class="node">
<title>2285</title>
<polygon fill="none" stroke="#000000" points="1098.304,-186.5003 923.2316,-186.5003 923.2316,-111.0997 1098.304,-111.0997 1098.304,-186.5003"/>
<text text-anchor="middle" x="1010.7678" y="-169.8" font-family="Times,serif" font-size="14.00" fill="#000000">term_in_months &lt;= 13.5</text>
<text text-anchor="middle" x="1010.7678" y="-153" font-family="Times,serif" font-size="14.00" fill="#000000">gini = 0.552</text>
<text text-anchor="middle" x="1010.7678" y="-136.2" font-family="Times,serif" font-size="14.00" fill="#000000">samples = 8457</text>
<text text-anchor="middle" x="1010.7678" y="-119.4" font-family="Times,serif" font-size="14.00" fill="#000000">value = [815, 4862, 2780, 0]</text>
</g>
<!-- 2284&#45;&gt;2285 -->
<g id="edge5" class="edge">
<title>2284-&gt;2285</title>
<path fill="none" stroke="#000000" d="M1010.7678,-222.3528C1010.7678,-214.02 1010.7678,-205.0845 1010.7678,-196.4137"/>
<polygon fill="#000000" stroke="#000000" points="1014.2679,-196.4084 1010.7678,-186.4085 1007.2679,-196.4085 1014.2679,-196.4084"/>
</g>
<!-- 2364 -->
<g id="node12" class="node">
<title>2364</title>
<polygon fill="none" stroke="#000000" points="1404.8039,-186.5003 1208.7317,-186.5003 1208.7317,-111.0997 1404.8039,-111.0997 1404.8039,-186.5003"/>
<text text-anchor="middle" x="1306.7678" y="-169.8" font-family="Times,serif" font-size="14.00" fill="#000000">term_in_months &lt;= 13.5</text>
<text text-anchor="middle" x="1306.7678" y="-153" font-family="Times,serif" font-size="14.00" fill="#000000">gini = 0.145</text>
<text text-anchor="middle" x="1306.7678" y="-136.2" font-family="Times,serif" font-size="14.00" fill="#000000">samples = 151984</text>
<text text-anchor="middle" x="1306.7678" y="-119.4" font-family="Times,serif" font-size="14.00" fill="#000000">value = [933, 140092, 10959, 0]</text>
</g>
<!-- 2284&#45;&gt;2364 -->
<g id="edge11" class="edge">
<title>2284-&gt;2364</title>
<path fill="none" stroke="#000000" d="M1110.9799,-222.3528C1139.3086,-211.7103 1170.2541,-200.0849 1199.0067,-189.2832"/>
<polygon fill="#000000" stroke="#000000" points="1200.5363,-192.4475 1208.6666,-185.6542 1198.0745,-185.8947 1200.5363,-192.4475"/>
</g>
<!-- 2286 -->
<g id="node7" class="node">
<title>2286</title>
<polygon fill="none" stroke="#000000" points="1007.304,-75.3003 832.2316,-75.3003 832.2316,.1003 1007.304,.1003 1007.304,-75.3003"/>
<text text-anchor="middle" x="919.7678" y="-58.6" font-family="Times,serif" font-size="14.00" fill="#000000">activity_Farming &lt;= 0.5</text>
<text text-anchor="middle" x="919.7678" y="-41.8" font-family="Times,serif" font-size="14.00" fill="#000000">gini = 0.488</text>
<text text-anchor="middle" x="919.7678" y="-25" font-family="Times,serif" font-size="14.00" fill="#000000">samples = 6264</text>
<text text-anchor="middle" x="919.7678" y="-8.2" font-family="Times,serif" font-size="14.00" fill="#000000">value = [670, 4213, 1381, 0]</text>
</g>
<!-- 2285&#45;&gt;2286 -->
<g id="edge6" class="edge">
<title>2285-&gt;2286</title>
<path fill="none" stroke="#000000" d="M979.9594,-111.1528C972.5473,-102.0954 964.5526,-92.326 956.8866,-82.9584"/>
<polygon fill="#000000" stroke="#000000" points="959.5863,-80.7308 950.5445,-75.2085 954.1691,-85.1641 959.5863,-80.7308"/>
</g>
<!-- 2323 -->
<g id="node14" class="node">
<title>2323</title>
<polygon fill="none" stroke="#000000" points="1193.804,-75.3003 1025.7316,-75.3003 1025.7316,.1003 1193.804,.1003 1193.804,-75.3003"/>
<text text-anchor="middle" x="1109.7678" y="-58.6" font-family="Times,serif" font-size="14.00" fill="#000000">activity_Fishing &lt;= 0.5</text>
<text text-anchor="middle" x="1109.7678" y="-41.8" font-family="Times,serif" font-size="14.00" fill="#000000">gini = 0.501</text>
<text text-anchor="middle" x="1109.7678" y="-25" font-family="Times,serif" font-size="14.00" fill="#000000">samples = 2193</text>
<text text-anchor="middle" x="1109.7678" y="-8.2" font-family="Times,serif" font-size="14.00" fill="#000000">value = [145, 649, 1399, 0]</text>
</g>
<!-- 2285&#45;&gt;2323 -->
<g id="edge13" class="edge">
<title>2285-&gt;2323</title>
<path fill="none" stroke="#000000" d="M1044.2847,-111.1528C1052.429,-102.0048 1061.2199,-92.1305 1069.6359,-82.6774"/>
<polygon fill="#000000" stroke="#000000" points="1072.2501,-85.0047 1076.2854,-75.2085 1067.0218,-80.3501 1072.2501,-85.0047"/>
</g>
<!-- 2283 -->
<g id="node9" class="node">
<title>2283</title>
<polygon fill="none" stroke="#000000" points="577.3041,-67.0014 430.2315,-67.0014 430.2315,-8.1986 577.3041,-8.1986 577.3041,-67.0014"/>
<text text-anchor="middle" x="503.7678" y="-50.2" font-family="Times,serif" font-size="14.00" fill="#000000">gini = 0.0</text>
<text text-anchor="middle" x="503.7678" y="-33.4" font-family="Times,serif" font-size="14.00" fill="#000000">samples = 10108</text>
<text text-anchor="middle" x="503.7678" y="-16.6" font-family="Times,serif" font-size="14.00" fill="#000000">value = [10107, 1, 0, 0]</text>
</g>
<!-- 377&#45;&gt;2283 -->
<g id="edge8" class="edge">
<title>377-&gt;2283</title>
<path fill="none" stroke="#000000" d="M577.1883,-111.1528C565.313,-99.2561 552.2115,-86.131 540.4032,-74.3014"/>
<polygon fill="#000000" stroke="#000000" points="542.7824,-71.7306 533.2405,-67.1258 537.8281,-76.6759 542.7824,-71.7306"/>
</g>
<!-- 378 -->
<g id="node11" class="node">
<title>378</title>
<polygon fill="none" stroke="#000000" points="813.3039,-75.3003 596.2317,-75.3003 596.2317,.1003 813.3039,.1003 813.3039,-75.3003"/>
<text text-anchor="middle" x="704.7678" y="-58.6" font-family="Times,serif" font-size="14.00" fill="#000000">term_in_months &lt;= 13.5</text>
<text text-anchor="middle" x="704.7678" y="-41.8" font-family="Times,serif" font-size="14.00" fill="#000000">gini = 0.454</text>
<text text-anchor="middle" x="704.7678" y="-25" font-family="Times,serif" font-size="14.00" fill="#000000">samples = 451254</text>
<text text-anchor="middle" x="704.7678" y="-8.2" font-family="Times,serif" font-size="14.00" fill="#000000">value = [55290, 75844, 320108, 12]</text>
</g>
<!-- 377&#45;&gt;378 -->
<g id="edge10" class="edge">
<title>377-&gt;378</title>
<path fill="none" stroke="#000000" d="M645.2377,-111.1528C652.495,-102.186 660.3171,-92.5213 667.8294,-83.2395"/>
<polygon fill="#000000" stroke="#000000" points="670.7587,-85.1835 674.3293,-75.2085 665.3175,-80.7797 670.7587,-85.1835"/>
</g>
<!-- 2365 -->
<g id="node13" class="node">
<title>2365</title>
<polygon fill="none" stroke="#000000" points="1401.304,-75.3003 1212.2316,-75.3003 1212.2316,.1003 1401.304,.1003 1401.304,-75.3003"/>
<text text-anchor="middle" x="1306.7678" y="-58.6" font-family="Times,serif" font-size="14.00" fill="#000000">activity_Farming &lt;= 0.5</text>
<text text-anchor="middle" x="1306.7678" y="-41.8" font-family="Times,serif" font-size="14.00" fill="#000000">gini = 0.112</text>
<text text-anchor="middle" x="1306.7678" y="-25" font-family="Times,serif" font-size="14.00" fill="#000000">samples = 133274</text>
<text text-anchor="middle" x="1306.7678" y="-8.2" font-family="Times,serif" font-size="14.00" fill="#000000">value = [748, 125393, 7133, 0]</text>
</g>
<!-- 2364&#45;&gt;2365 -->
<g id="edge12" class="edge">
<title>2364-&gt;2365</title>
<path fill="none" stroke="#000000" d="M1306.7678,-111.1528C1306.7678,-102.82 1306.7678,-93.8845 1306.7678,-85.2137"/>
<polygon fill="#000000" stroke="#000000" points="1310.2679,-85.2084 1306.7678,-75.2085 1303.2679,-85.2085 1310.2679,-85.2084"/>
</g>
<!-- 2492 -->
<g id="node15" class="node">
<title>2492</title>
<polygon fill="none" stroke="#000000" points="1601.804,-75.3003 1419.7316,-75.3003 1419.7316,.1003 1601.804,.1003 1601.804,-75.3003"/>
<text text-anchor="middle" x="1510.7678" y="-58.6" font-family="Times,serif" font-size="14.00" fill="#000000">loan_amount &lt;= 687.5</text>
<text text-anchor="middle" x="1510.7678" y="-41.8" font-family="Times,serif" font-size="14.00" fill="#000000">gini = 0.341</text>
<text text-anchor="middle" x="1510.7678" y="-25" font-family="Times,serif" font-size="14.00" fill="#000000">samples = 18710</text>
<text text-anchor="middle" x="1510.7678" y="-8.2" font-family="Times,serif" font-size="14.00" fill="#000000">value = [185, 14699, 3826, 0]</text>
</g>
<!-- 2364&#45;&gt;2492 -->
<g id="edge14" class="edge">
<title>2364-&gt;2492</title>
<path fill="none" stroke="#000000" d="M1375.8329,-111.1528C1394.1936,-101.1444 1414.1493,-90.2666 1432.943,-80.0221"/>
<polygon fill="#000000" stroke="#000000" points="1434.6687,-83.0677 1441.7738,-75.2085 1431.3184,-76.9215 1434.6687,-83.0677"/>
</g>
</g>
</svg>