<?xml version="1.0" encoding="UTF-8" standalone="no"?><!DOCTYPE svg PUBLIC "-//W3C//DTD SVG 1.1//EN" "http://www.w3.org/Graphics/SVG/1.1/DTD/svg11.dtd"><!-- Generated by graphviz version 2.40.1 (20161225.0304)
 --><!-- Title: Tree Pages: 1 --><svg xmlns="http://www.w3.org/2000/svg" xmlns:xlink="http://www.w3.org/1999/xlink" width="1618pt" height="417pt" viewBox="0.00 0.00 1618.04 416.80">
<g id="graph0" class="graph" transform="scale(1 1) rotate(0) translate(4 412.8)">
<title>Tree</title>
<polygon fill="#ffffff" stroke="transparent" points="-4,4 -4,-412.8 1614.0356,-412.8 1614.0356,4 -4,4"/>
<!-- 0 -->
<g id="node1" class="node">
<title>0</title>
<polygon fill="none" stroke="#000000" points="925.3039,-408.9003 694.2317,-408.9003 694.2317,-333.4997 925.3039,-333.4997 925.3039,-408.9003"/>
<text text-anchor="middle" x="809.7678" y="-392.2" font-family="Times,serif" font-size="14.00" fill="#000000">country_code_PH &lt;= 0.5</text>
<text text-anchor="middle" x="809.7678" y="-375.4" font-family="Times,serif" font-size="14.00" fill="#000000">gini = 0.581</text>
<text text-anchor="middle" x="809.7678" y="-358.6" font-family="Times,serif" font-size="14.00" fill="#000000">samples = 671205</text>
<text text-anchor="middle" x="809.7678" y="-341.8" font-family="Times,serif" font-size="14.00" fill="#000000">value = [70728, 257158, 342717, 602]</text>
</g>
<!-- 1 -->
<g id="node2" class="node">
<title>1</title>
<polygon fill="none" stroke="#000000" points="734.3039,-297.7003 503.2317,-297.7003 503.2317,-222.2997 734.3039,-222.2997 734.3039,-297.7003"/>
<text text-anchor="middle" x="618.7678" y="-281" font-family="Times,serif" font-size="14.00" fill="#000000">term_in_months &lt;= 7.5</text>
<text text-anchor="middle" x="618.7678" y="-264.2" font-family="Times,serif" font-size="14.00" fill="#000000">gini = 0.519</text>
<text text-anchor="middle" x="618.7678" y="-247.4" font-family="Times,serif" font-size="14.00" fill="#000000">samples = 510764</text>
<text text-anchor="middle" x="618.7678" y="-230.6" font-family="Times,serif" font-size="14.00" fill="#000000">value = [68980, 112204, 328978, 602]</text>
</g>
<!-- 0&#45;&gt;1 -->
<g id="edge1" class="edge">
<title>0-&gt;1</title>
<path fill="none" stroke="#000000" d="M745.1039,-333.5528C728.1466,-323.6802 709.7362,-312.9617 692.3503,-302.8397"/>
<polygon fill="#000000" stroke="#000000" points="693.7682,-299.6152 683.3651,-297.6085 690.2462,-305.6646 693.7682,-299.6152"/>
<text text-anchor="middle" x="689.7479" y="-317.5799" font-family="Times,serif" font-size="14.00" fill="#000000">True</text>
</g>
<!-- 81992 -->
<g id="node5" class="node">
<title>81992</title>
<polygon fill="none" stroke="#000000" points="1120.3039,-297.7003 917.2317,-297.7003 917.2317,-222.2997 1120.3039,-222.2997 1120.3039,-297.7003"/>
<text text-anchor="middle" x="1018.7678" y="-281" font-family="Times,serif" font-size="14.00" fill="#000000">count_female &lt;= 0.5</text>
<text text-anchor="middle" x="1018.7678" y="-264.2" font-family="Times,serif" font-size="14.00" fill="#000000">gini = 0.176</text>
<text text-anchor="middle" x="1018.7678" y="-247.4" font-family="Times,serif" font-size="14.00" fill="#000000">samples = 160441</text>
<text text-anchor="middle" x="1018.7678" y="-230.6" font-family="Times,serif" font-size="14.00" fill="#000000">value = [1748, 144954, 13739, 0]</text>
</g>
<!-- 0&#45;&gt;81992 -->
<g id="edge4" class="edge">
<title>0-&gt;81992</title>
<path fill="none" stroke="#000000" d="M880.5257,-333.5528C899.3364,-323.5444 919.7812,-312.6666 939.0356,-302.4221"/>
<polygon fill="#000000" stroke="#000000" points="940.8986,-305.3955 948.0828,-297.6085 937.6106,-299.2158 940.8986,-305.3955"/>
<text text-anchor="middle" x="940.78" y="-317.3181" font-family="Times,serif" font-size="14.00" fill="#000000">False</text>
</g>
<!-- 2 -->
<g id="node3" class="node">
<title>2</title>
<polygon fill="none" stroke="#000000" points="418.3039,-186.5003 215.2317,-186.5003 215.2317,-111.0997 418.3039,-111.0997 418.3039,-186.5003"/>
<text text-anchor="middle" x="316.7678" y="-169.8" font-family="Times,serif" font-size="14.00" fill="#000000">sector_Agriculture &lt;= 0.5</text>
<text text-anchor="middle" x="316.7678" y="-153" font-family="Times,serif" font-size="14.00" fill="#000000">gini = 0.421</text>
<text text-anchor="middle" x="316.7678" y="-136.2" font-family="Times,serif" font-size="14.00" fill="#000000">samples = 49402</text>
<text text-anchor="middle" x="316.7678" y="-119.4" font-family="Times,serif" font-size="14.00" fill="#000000">value = [3583, 36359, 8870, 590]</text>
</g>
<!-- 1&#45;&gt;2 -->
<g id="edge2" class="edge">
<title>1-&gt;2</title>
<path fill="none" stroke="#000000" d="M516.5244,-222.3528C488.0827,-211.8802 457.0557,-200.4557 428.1193,-189.8009"/>
<polygon fill="#000000" stroke="#000000" points="428.9864,-186.3906 418.393,-186.2196 426.5677,-192.9594 428.9864,-186.3906"/>
</g>
<!-- 7467 -->
<g id="node6" class="node">
<title>7467</title>
<polygon fill="none" stroke="#000000" points="727.3039,-186.5003 510.2317,-186.5003 510.2317,-111.0997 727.3039,-111.0997 727.3039,-186.5003"/>
<text text-anchor="middle" x="618.7678" y="-169.8" font-family="Times,serif" font-size="14.00" fill="#000000">country_code_NG &lt;= 0.5</text>
<text text-anchor="middle" x="618.7678" y="-153" font-family="Times,serif" font-size="14.00" fill="#000000">gini = 0.471</text>
<text text-anchor="middle" x="618.7678" y="-136.2" font-family="Times,serif" font-size="14.00" fill="#000000">samples = 461362</text>
<text text-anchor="middle" x="618.7678" y="-119.4" font-family="Times,serif" font-size="14.00" fill="#000000">value = [65397, 75845, 320108, 12]</text>
</g>
<!-- 1&#45;&gt;7467 -->
<g id="edge5" class="edge">
<title>1-&gt;7467</title>
<path fill="none" stroke="#000000" d="M618.7678,-222.3528C618.7678,-214.02 618.7678,-205.0845 618.7678,-196.4137"/>
<polygon fill="#000000" stroke="#000000" points="622.2679,-196.4084 618.7678,-186.4085 615.2679,-196.4085 622.2679,-196.4084"/>
</g>
<!-- 3 -->
<g id="node4" class="node">
<title>3</title>
<polygon fill="none" stroke="#000000" points="203.3039,-75.3003 .2317,-75.3003 .2317,.1003 203.3039,.1003 203.3039,-75.3003"/>
<text text-anchor="middle" x="101.7678" y="-58.6" font-family="Times,serif" font-size="14.00" fill="#000000">country_code_HT &lt;= 0.5</text>
<text text-anchor="middle" x="101.7678" y="-41.8" font-family="Times,serif" font-size="14.00" fill="#000000">gini = 0.345</text>
<text text-anchor="middle" x="101.7678" y="-25" font-family="Times,serif" font-size="14.00" fill="#000000">samples = 43121</text>
<text text-anchor="middle" x="101.7678" y="-8.2" font-family="Times,serif" font-size="14.00" fill="#000000">value = [1138, 34106, 7326, 551]</text>
</g>
<!-- 2&#45;&gt;3 -->
<g id="edge3" class="edge">
<title>2-&gt;3</title>
<path fill="none" stroke="#000000" d="M243.9786,-111.1528C224.5403,-101.0991 203.4058,-90.1681 183.5202,-79.8831"/>
<polygon fill="#000000" stroke="#000000" points="184.9723,-76.6937 174.482,-75.2085 181.7564,-82.9113 184.9723,-76.6937"/>
</g>
<!-- 5966 -->
<g id="node7" class="node">
<title>5966</title>
<polygon fill="none" stroke="#000000" points="411.304,-75.3003 222.2316,-75.3003 222.2316,.1003 411.304,.1003 411.304,-75.3003"/>
<text text-anchor="middle" x="316.7678" y="-58.6" font-family="Times,serif" font-size="14.00" fill="#000000">country_code_ML &lt;= 0.5</text>
<text text-anchor="middle" x="316.7678" y="-41.8" font-family="Times,serif" font-size="14.00" fill="#000000">gini = 0.659</text>
<text text-anchor="middle" x="316.7678" y="-25" font-family="Times,serif" font-size="14.00" fill="#000000">samples = 6281</text>
<text text-anchor="middle" x="316.7678" y="-8.2" font-family="Times,serif" font-size="14.00" fill="#000000">value = [2445, 2253, 1544, 39]</text>
</g>
<!-- 2&#45;&gt;5966 -->
<g id="edge6" class="edge">
<title>2-&gt;5966</title>
<path fill="none" stroke="#000000" d="M316.7678,-111.1528C316.7678,-102.82 316.7678,-93.8845 316.7678,-85.2137"/>
<polygon fill="#000000" stroke="#000000" points="320.2679,-85.2084 316.7678,-75.2085 313.2679,-85.2085 320.2679,-85.2084"/>
</g>
<!-- 81993 -->
<g id="node10" class="node">
<title>81993</title>
<polygon fill="none" stroke="#000000" points="1106.304,-186.5003 931.2316,-186.5003 931.2316,-111.0997 1106.304,-111.0997 1106.304,-186.5003"/>
<text text-anchor="middle" x="1018.7678" y="-169.8" font-family="Times,serif" font-size="14.00" fill="#000000">term_in_months &lt;= 13.5</text>
<text text-anchor="middle" x="1018.7678" y="-153" font-family="Times,serif" font-size="14.00" fill="#000000">gini = 0.552</text>
<text text-anchor="middle" x="1018.7678" y="-136.2" font-family="Times,serif" font-size="14.00" fill="#000000">samples = 8457</text>
<text text-anchor="middle" x="1018.7678" y="-119.4" font-family="Times,serif" font-size="14.00" fill="#000000">value = [815, 4862, 2780, 0]</text>
</g>
<!-- 81992&#45;&gt;81993 -->
<g id="edge9" class="edge">
<title>81992-&gt;81993</title>
<path fill="none" stroke="#000000" d="M1018.7678,-222.3528C1018.7678,-214.02 1018.7678,-205.0845 1018.7678,-196.4137"/>
<polygon fill="#000000" stroke="#000000" points="1022.2679,-196.4084 1018.7678,-186.4085 1015.2679,-196.4085 1022.2679,-196.4084"/>
</g>
<!-- 86570 -->
<g id="node11" class="node">
<title>86570</title>
<polygon fill="none" stroke="#000000" points="1412.8039,-186.5003 1216.7317,-186.5003 1216.7317,-111.0997 1412.8039,-111.0997 1412.8039,-186.5003"/>
<text text-anchor="middle" x="1314.7678" y="-169.8" font-family="Times,serif" font-size="14.00" fill="#000000">term_in_months &lt;= 13.5</text>
<text text-anchor="middle" x="1314.7678" y="-153" font-family="Times,serif" font-size="14.00" fill="#000000">gini = 0.145</text>
<text text-anchor="middle" x="1314.7678" y="-136.2" font-family="Times,serif" font-size="14.00" fill="#000000">samples = 151984</text>
<text text-anchor="middle" x="1314.7678" y="-119.4" font-family="Times,serif" font-size="14.00" fill="#000000">value = [933, 140092, 10959, 0]</text>
</g>
<!-- 81992&#45;&gt;86570 -->
<g id="edge10" class="edge">
<title>81992-&gt;86570</title>
<path fill="none" stroke="#000000" d="M1118.9799,-222.3528C1147.3086,-211.7103 1178.2541,-200.0849 1207.0067,-189.2832"/>
<polygon fill="#000000" stroke="#000000" points="1208.5363,-192.4475 1216.6666,-185.6542 1206.0745,-185.8947 1208.5363,-192.4475"/>
</g>
<!-- 7468 -->
<g id="node8" class="node">
<title>7468</title>
<polygon fill="none" stroke="#000000" points="647.3039,-75.3003 430.2317,-75.3003 430.2317,.1003 647.3039,.1003 647.3039,-75.3003"/>
<text text-anchor="middle" x="538.7678" y="-58.6" font-family="Times,serif" font-size="14.00" fill="#000000">term_in_months &lt;= 13.5</text>
<text text-anchor="middle" x="538.7678" y="-41.8" font-family="Times,serif" font-size="14.00" fill="#000000">gini = 0.454</text>
<text text-anchor="middle" x="538.7678" y="-25" font-family="Times,serif" font-size="14.00" fill="#000000">samples = 451254</text>
<text text-anchor="middle" x="538.7678" y="-8.2" font-family="Times,serif" font-size="14.00" fill="#000000">value = [55290, 75844, 320108, 12]</text>
</g>
<!-- 7467&#45;&gt;7468 -->
<g id="edge7" class="edge">
<title>7467-&gt;7468</title>
<path fill="none" stroke="#000000" d="M591.6834,-111.1528C585.2977,-102.2765 578.4199,-92.7165 571.8044,-83.5209"/>
<polygon fill="#000000" stroke="#000000" points="574.5054,-81.2821 565.8243,-75.2085 568.8231,-85.3701 574.5054,-81.2821"/>
</g>
<!-- 81989 -->
<g id="node9" class="node">
<title>81989</title>
<polygon fill="none" stroke="#000000" points="822.6585,-75.3003 664.8771,-75.3003 664.8771,.1003 822.6585,.1003 822.6585,-75.3003"/>
<text text-anchor="middle" x="743.7678" y="-58.6" font-family="Times,serif" font-size="14.00" fill="#000000">loan_amount &lt;= 18975.0</text>
<text text-anchor="middle" x="743.7678" y="-41.8" font-family="Times,serif" font-size="14.00" fill="#000000">gini = 0.0</text>
<text text-anchor="middle" x="743.7678" y="-25" font-family="Times,serif" font-size="14.00" fill="#000000">samples = 10108</text>
<text text-anchor="middle" x="743.7678" y="-8.2" font-family="Times,serif" font-size="14.00" fill="#000000">value = [10107, 1, 0, 0]</text>
</g>
<!-- 7467&#45;&gt;81989 -->
<g id="edge8" class="edge">
<title>7467-&gt;81989</title>
<path fill="none" stroke="#000000" d="M661.0871,-111.1528C671.5739,-101.8237 682.9099,-91.7392 693.7269,-82.1164"/>
<polygon fill="#000000" stroke="#000000" points="696.3469,-84.4701 701.4921,-75.2085 691.6943,-79.2401 696.3469,-84.4701"/>
</g>
<!-- 81994 -->
<g id="node12" class="node">
<title>81994</title>
<polygon fill="none" stroke="#000000" points="1015.304,-75.3003 840.2316,-75.3003 840.2316,.1003 1015.304,.1003 1015.304,-75.3003"/>
<text text-anchor="middle" x="927.7678" y="-58.6" font-family="Times,serif" font-size="14.00" fill="#000000">activity_Farming &lt;= 0.5</text>
<text text-anchor="middle" x="927.7678" y="-41.8" font-family="Times,serif" font-size="14.00" fill="#000000">gini = 0.488</text>
<text text-anchor="middle" x="927.7678" y="-25" font-family="Times,serif" font-size="14.00" fill="#000000">samples = 6264</text>
<text text-anchor="middle" x="927.7678" y="-8.2" font-family="Times,serif" font-size="14.00" fill="#000000">value = [670, 4213, 1381, 0]</text>
</g>
<!-- 81993&#45;&gt;81994 -->
<g id="edge11" class="edge">
<title>81993-&gt;81994</title>
<path fill="none" stroke="#000000" d="M987.9594,-111.1528C980.5473,-102.0954 972.5526,-92.326 964.8866,-82.9584"/>
<polygon fill="#000000" stroke="#000000" points="967.5863,-80.7308 958.5445,-75.2085 962.1691,-85.1641 967.5863,-80.7308"/>
</g>
<!-- 85519 -->
<g id="node13" class="node">
<title>85519</title>
<polygon fill="none" stroke="#000000" points="1201.804,-75.3003 1033.7316,-75.3003 1033.7316,.1003 1201.804,.1003 1201.804,-75.3003"/>
<text text-anchor="middle" x="1117.7678" y="-58.6" font-family="Times,serif" font-size="14.00" fill="#000000">activity_Fishing &lt;= 0.5</text>
<text text-anchor="middle" x="1117.7678" y="-41.8" font-family="Times,serif" font-size="14.00" fill="#000000">gini = 0.501</text>
<text text-anchor="middle" x="1117.7678" y="-25" font-family="Times,serif" font-size="14.00" fill="#000000">samples = 2193</text>
<text text-anchor="middle" x="1117.7678" y="-8.2" font-family="Times,serif" font-size="14.00" fill="#000000">value = [145, 649, 1399, 0]</text>
</g>
<!-- 81993&#45;&gt;85519 -->
<g id="edge12" class="edge">
<title>81993-&gt;85519</title>
<path fill="none" stroke="#000000" d="M1052.2847,-111.1528C1060.429,-102.0048 1069.2199,-92.1305 1077.6359,-82.6774"/>
<polygon fill="#000000" stroke="#000000" points="1080.2501,-85.0047 1084.2854,-75.2085 1075.0218,-80.3501 1080.2501,-85.0047"/>
</g>
<!-- 86571 -->
<g id="node14" class="node">
<title>86571</title>
<polygon fill="none" stroke="#000000" points="1409.304,-75.3003 1220.2316,-75.3003 1220.2316,.1003 1409.304,.1003 1409.304,-75.3003"/>
<text text-anchor="middle" x="1314.7678" y="-58.6" font-family="Times,serif" font-size="14.00" fill="#000000">activity_Farming &lt;= 0.5</text>
<text text-anchor="middle" x="1314.7678" y="-41.8" font-family="Times,serif" font-size="14.00" fill="#000000">gini = 0.112</text>
<text text-anchor="middle" x="1314.7678" y="-25" font-family="Times,serif" font-size="14.00" fill="#000000">samples = 133274</text>
<text text-anchor="middle" x="1314.7678" y="-8.2" font-family="Times,serif" font-size="14.00" fill="#000000">value = [748, 125393, 7133, 0]</text>
</g>
<!-- 86570&#45;&gt;86571 -->
<g id="edge13" class="edge">
<title>86570-&gt;86571</title>
<path fill="none" stroke="#000000" d="M1314.7678,-111.1528C1314.7678,-102.82 1314.7678,-93.8845 1314.7678,-85.2137"/>
<polygon fill="#000000" stroke="#000000" points="1318.2679,-85.2084 1314.7678,-75.2085 1311.2679,-85.2085 1318.2679,-85.2084"/>
</g>
<!-- 102596 -->
<g id="node15" class="node">
<title>102596</title>
<polygon fill="none" stroke="#000000" points="1609.804,-75.3003 1427.7316,-75.3003 1427.7316,.1003 1609.804,.1003 1609.804,-75.3003"/>
<text text-anchor="middle" x="1518.7678" y="-58.6" font-family="Times,serif" font-size="14.00" fill="#000000">loan_amount &lt;= 687.5</text>
<text text-anchor="middle" x="1518.7678" y="-41.8" font-family="Times,serif" font-size="14.00" fill="#000000">gini = 0.341</text>
<text text-anchor="middle" x="1518.7678" y="-25" font-family="Times,serif" font-size="14.00" fill="#000000">samples = 18710</text>
<text text-anchor="middle" x="1518.7678" y="-8.2" font-family="Times,serif" font-size="14.00" fill="#000000">value = [185, 14699, 3826, 0]</text>
</g>
<!-- 86570&#45;&gt;102596 -->
<g id="edge14" class="edge">
<title>86570-&gt;102596</title>
<path fill="none" stroke="#000000" d="M1383.8329,-111.1528C1402.1936,-101.1444 1422.1493,-90.2666 1440.943,-80.0221"/>
<polygon fill="#000000" stroke="#000000" points="1442.6687,-83.0677 1449.7738,-75.2085 1439.3184,-76.9215 1442.6687,-83.0677"/>
</g>
</g>
</svg>